<svg width="20" height="20" viewBox="0 0 20 20" fill="none" xmlns="http://www.w3.org/2000/svg">
<path d="M2 10C2 6.72 2 5.081 2.814 3.919C3.11507 3.48904 3.48904 3.11507 3.919 2.814C5.08 2 6.72 2 10 2C13.28 2 14.919 2 16.081 2.814C16.511 3.11507 16.8849 3.48904 17.186 3.919C18 5.08 18 6.72 18 10C18 13.28 18 14.919 17.186 16.081C16.8849 16.511 16.511 16.8849 16.081 17.186C14.92 18 13.28 18 10 18C6.72 18 5.081 18 3.919 17.186C3.48904 16.8849 3.11507 16.511 2.814 16.081C2 14.92 2 13.28 2 10Z" stroke="#080B0E" stroke-width="3" stroke-linecap="round" stroke-linejoin="round"/>
</svg>
