<svg width="26" height="11" viewBox="0 0 26 11" fill="none" xmlns="http://www.w3.org/2000/svg">
<path d="M25.5058 5.62397C25.5058 8.15697 23.4499 10.2108 20.913 10.2108C18.3775 10.2108 16.3203 8.15697 16.3203 5.62397C16.3203 3.08958 18.3775 1.03575 20.913 1.03575C23.4499 1.03575 25.5058 3.08958 25.5058 5.62397Z" fill="black"/>
<path d="M20.9121 9.91834C18.5416 9.91834 16.6133 7.99054 16.6133 5.62372C16.6133 3.25552 18.5416 1.32773 20.9121 1.32773C23.2826 1.32773 25.2123 3.25552 25.2123 5.62372C25.2123 7.99054 23.2826 9.91834 20.9121 9.91834Z" fill="#6F6F6F"/>
<path d="M20.914 8.74832C19.1881 8.74832 17.7852 7.34679 17.7852 5.62396C17.7852 3.89975 19.1881 2.49821 20.914 2.49821C22.6385 2.49821 24.0428 3.89975 24.0428 5.62396C24.0428 7.34679 22.6385 8.74832 20.914 8.74832Z" fill="black"/>
<path d="M8.11716 3.76533C8.11716 5.77484 6.48551 7.40626 4.47264 7.40626C2.45839 7.40626 0.828125 5.77484 0.828125 3.76533C0.828125 1.75444 2.45839 0.124397 4.47264 0.124397C6.48551 0.124397 8.11716 1.75444 8.11716 3.76533Z" fill="#171717"/>
<path d="M4.4729 7.10019C2.63193 7.10019 1.13477 5.6031 1.13477 3.76532C1.13477 1.92616 2.63193 0.42907 4.4729 0.42907C6.31388 0.42907 7.80967 1.92616 7.80967 3.76532C7.80967 5.6031 6.31388 7.10019 4.4729 7.10019Z" fill="url(#paint0_linear_655_100)"/>
<path d="M4.4729 6.48668C2.97018 6.48668 1.74609 5.26657 1.74609 3.76533C1.74609 2.2627 2.97018 1.04259 4.4729 1.04259C5.97562 1.04259 7.19693 2.2627 7.19693 3.76533C7.19693 5.26657 5.97562 6.48668 4.4729 6.48668Z" fill="#171717"/>
<defs>
<linearGradient id="paint0_linear_655_100" x1="4.47291" y1="7.09881" x2="4.47291" y2="0.42907" gradientUnits="userSpaceOnUse">
<stop stop-color="#6F6F6F"/>
<stop offset="1"/>
</linearGradient>
</defs>
</svg>
