<svg width="18" height="19" viewBox="0 0 18 19" fill="none" xmlns="http://www.w3.org/2000/svg">
<g filter="url(#filter0_i_859_6)">
<path d="M15.89 10.3459C15.537 11.6889 13.867 12.6379 10.526 14.5359C7.296 16.3709 5.681 17.2879 4.38 16.9199C3.84076 16.767 3.35021 16.4773 2.956 16.0789C2 15.1139 2 13.2429 2 9.49985C2 5.75685 2 3.88585 2.956 2.92085C3.35032 2.52278 3.84086 2.23342 4.38 2.08085C5.681 1.71085 7.296 2.62885 10.526 4.46385C13.866 6.36185 15.537 7.31085 15.891 8.65385C16.038 9.20827 16.038 9.79144 15.891 10.3459" stroke="black" stroke-width="3" stroke-linecap="round" stroke-linejoin="round"/>
</g>
<defs>
<filter id="filter0_i_859_6" x="0.5" y="0.499874" width="17.002" height="18.0003" filterUnits="userSpaceOnUse" color-interpolation-filters="sRGB">
<feFlood flood-opacity="0" result="BackgroundImageFix"/>
<feBlend mode="normal" in="SourceGraphic" in2="BackgroundImageFix" result="shape"/>
<feColorMatrix in="SourceAlpha" type="matrix" values="0 0 0 0 0 0 0 0 0 0 0 0 0 0 0 0 0 0 127 0" result="hardAlpha"/>
<feOffset/>
<feGaussianBlur stdDeviation="1"/>
<feComposite in2="hardAlpha" operator="arithmetic" k2="-1" k3="1"/>
<feColorMatrix type="matrix" values="0 0 0 0 0 0 0 0 0 0 0 0 0 0 0 0 0 0 0.9 0"/>
<feBlend mode="normal" in2="shape" result="effect1_innerShadow_859_6"/>
</filter>
</defs>
</svg>
