<svg width="239" height="77" viewBox="0 0 239 77" fill="none" xmlns="http://www.w3.org/2000/svg">
<path d="M238.774 70.5733C238.774 73.8631 236.182 76.5536 233.013 76.5536H5.76135C2.59274 76.5536 0 73.8631 0 70.5733V5.98166C0 2.69188 2.59274 0 5.76135 0H233.013C236.182 0 238.774 2.69188 238.774 5.98166V70.5733Z" fill="url(#paint0_linear_788_24)"/>
<path d="M232.804 0H6.01737C3.76669 0 1.81375 1.35927 0.871094 3.32012L6.27221 8.12602V61.972H89.0534H149.605H232.386V8.12602L237.903 3.21784C236.942 1.31217 235.015 0 232.804 0Z" fill="url(#paint1_linear_788_24)"/>
<path d="M5.50251 73.8196C3.91458 73.8196 2.61523 72.4709 2.61523 70.8211V5.73388C2.61523 4.08405 3.91458 2.73405 5.50251 2.73405H233.275C234.863 2.73405 236.161 4.08405 236.161 5.73388V70.8211C236.161 72.4709 234.863 73.8196 233.275 73.8196H5.50251Z" fill="url(#paint2_linear_788_24)"/>
<path d="M229.151 6.6862C228.469 5.03677 226.449 3.68787 224.665 3.68787H119.71C117.925 3.68787 116.464 3.68787 116.464 3.68787C116.464 3.68787 115.003 3.68787 113.216 3.68787H14.3051C12.5196 3.68787 10.4998 5.03677 9.81771 6.6862C9.81771 6.6862 4.09241 20.527 4.35025 37.3648C4.6081 54.2039 10.7715 68.0793 10.7715 68.0793C11.4965 69.7094 13.5509 71.0444 15.3365 71.0444H119.258C121.044 71.0444 122.505 71.0444 122.505 71.0431C122.505 71.0431 123.968 71.0431 125.752 71.0431H223.634C225.418 71.0431 227.472 69.708 228.197 68.078C228.197 68.078 234.361 54.2039 234.618 37.3648C234.878 20.527 229.151 6.6862 229.151 6.6862Z" fill="#0A0E12"/>
<path d="M16.5188 9.14719C16.5188 7.42574 15.8048 6.01729 14.9315 6.01729C14.0595 6.01729 12.7731 7.30526 12.073 8.87713C12.073 8.87713 6.37956 21.6917 6.63741 37.3648C6.89525 53.0406 13.0281 65.8884 13.0281 65.8884C13.7698 67.4423 14.858 68.7136 15.4472 68.7136C16.0363 68.7136 16.5188 67.3052 16.5188 65.5837V9.14719Z" fill="url(#paint3_linear_788_24)"/>
<path d="M223.53 6.59478C222.893 4.97242 220.95 3.64542 219.213 3.64542H119.679C117.94 3.64542 115.097 3.64542 113.359 3.64542H19.5653C17.8262 3.64542 15.8839 4.97242 15.248 6.59478C15.248 6.59478 9.78868 20.5054 10.0334 37.3641C10.2781 54.2241 16.1535 68.1653 16.1535 68.1653C16.8309 69.771 18.8064 71.0855 20.5441 71.0855H119.097C120.835 71.0855 123.679 71.0855 125.418 71.0855H218.231C219.97 71.0855 221.946 69.771 222.622 68.1653C222.622 68.1653 228.499 54.2241 228.742 37.3641C228.988 20.5054 223.53 6.59478 223.53 6.59478Z" fill="url(#paint4_linear_788_24)"/>
<path d="M9.74814 43.421C9.76477 43.421 32.8518 43.306 42.9619 37.3648L30.0903 16.7296L15.0285 6.01729H14.9314C13.1542 11.2038 9.19363 24.2843 9.38355 37.3648C9.41405 39.3937 9.54436 41.4226 9.74814 43.421Z" fill="url(#paint5_linear_788_24)"/>
<path d="M40.7168 10.0476H207.871C207.871 10.0476 215.867 9.35641 218.606 15.5959C221.36 23.0783 225.483 39.7353 218.606 57.5509C218.606 57.5509 216.062 64.1511 205.945 62.6655C195.829 61.1786 169.059 57.0968 123.675 55.7357C78.291 54.376 40.7168 62.6655 40.7168 62.6655C40.7168 62.6655 35.4186 62.0869 30.6012 55.2829C25.7853 48.479 24.3398 27.1615 30.6012 16.2757C30.6012 16.2757 33.9745 10.0476 40.7168 10.0476Z" fill="black"/>
<path d="M29.3556 19.1384C24.4976 30.6131 26.2513 49.401 30.5185 55.4776C34.7478 61.4989 39.3745 62.5255 40.0964 62.6512C42.3362 62.1676 73.9239 55.5122 113.027 55.5122C116.456 55.5122 119.894 55.5633 123.247 55.6641C167.581 57.0044 193.752 60.891 204.928 62.5476L205.744 62.6706C206.697 62.8115 207.621 62.8833 208.492 62.8833C215.693 62.8833 217.642 58.1014 217.72 57.8983C223.837 41.9276 221.145 27.0567 218.777 19.1384H29.3556Z" fill="#595959"/>
<path d="M208.842 62.8834C207.989 62.8834 207.084 62.8134 206.146 62.6748L205.332 62.5554C194.165 60.9076 168.016 57.0467 123.719 55.7158C120.37 55.6143 116.933 55.5635 113.504 55.5635C74.6178 55.5635 42.7651 62.1987 40.6634 62.6474C39.9105 62.5005 35.4339 61.4153 31.3714 55.6651C29.3032 52.7372 27.793 46.6522 27.4267 39.7851C27.0314 32.3542 28.0285 25.1771 30.1622 20.0498H218.871C221.102 27.5836 223.838 42.3495 217.758 58.1334C217.681 58.3255 215.813 62.882 208.842 62.8834Z" fill="url(#paint6_linear_788_24)"/>
<defs>
<linearGradient id="paint0_linear_788_24" x1="11938.7" y1="7655.36" x2="11938.7" y2="0" gradientUnits="userSpaceOnUse">
<stop stop-color="#0F0F10"/>
<stop offset="1" stop-color="#0A0E12"/>
</linearGradient>
<linearGradient id="paint1_linear_788_24" x1="0.871094" y1="30.986" x2="237.903" y2="30.986" gradientUnits="userSpaceOnUse">
<stop stop-color="#292E36"/>
<stop offset="1" stop-color="#2A2F36"/>
</linearGradient>
<linearGradient id="paint2_linear_788_24" x1="119.389" y1="73.8209" x2="119.389" y2="2.73405" gradientUnits="userSpaceOnUse">
<stop stop-color="#101317"/>
<stop offset="1" stop-color="#535353"/>
<stop offset="1" stop-color="#14171B"/>
</linearGradient>
<linearGradient id="paint3_linear_788_24" x1="11.5739" y1="68.7136" x2="11.5739" y2="6.01729" gradientUnits="userSpaceOnUse">
<stop/>
<stop offset="1" stop-color="#B5B5B5"/>
</linearGradient>
<linearGradient id="paint4_linear_788_24" x1="119.388" y1="71.0855" x2="119.388" y2="3.64542" gradientUnits="userSpaceOnUse">
<stop stop-color="#090A0C"/>
<stop offset="0.0705882" stop-color="#2F2F2F"/>
<stop offset="0.670588" stop-color="#535353"/>
<stop offset="0.690196" stop-color="#535353"/>
<stop offset="0.901961" stop-color="#535353"/>
<stop offset="1" stop-color="#01050B"/>
</linearGradient>
<linearGradient id="paint5_linear_788_24" x1="26.1699" y1="43.421" x2="26.1699" y2="6.01729" gradientUnits="userSpaceOnUse">
<stop stop-color="#373A3E"/>
<stop offset="1" stop-color="#BBC0C8"/>
</linearGradient>
<linearGradient id="paint6_linear_788_24" x1="124.4" y1="62.8834" x2="124.4" y2="20.0498" gradientUnits="userSpaceOnUse">
<stop stop-color="#171717"/>
<stop offset="0.0705882" stop-color="#171717"/>
<stop offset="0.658824" stop-color="#6F6F6F"/>
<stop offset="0.690196" stop-color="#6F6F6F"/>
<stop offset="0.901961" stop-color="#6F6F6F"/>
<stop offset="1"/>
</linearGradient>
</defs>
</svg>
