<svg width="16" height="17" viewBox="0 0 16 17" fill="none" xmlns="http://www.w3.org/2000/svg">
<g filter="url(#filter0_i_859_9)">
<path d="M13.9046 9.23307C13.6021 10.397 12.1708 11.2195 9.30733 12.8644C6.53901 14.4547 5.15485 15.2495 4.03981 14.9305C3.57765 14.7981 3.15721 14.547 2.81935 14.2017C2 13.3653 2 11.7438 2 8.49987C2 5.25594 2 3.6344 2.81935 2.79807C3.15731 2.45308 3.57774 2.2023 4.03981 2.07007C5.15485 1.7494 6.53901 2.545 9.30733 4.13534C12.1699 5.78027 13.6021 6.60274 13.9055 7.76667C14.0315 8.24716 14.0315 8.75258 13.9055 9.23307" stroke="#3CCB5E" stroke-width="3" stroke-linecap="round" stroke-linejoin="round"/>
</g>
<defs>
<filter id="filter0_i_859_9" x="0.5" y="0.499855" width="15" height="16.0003" filterUnits="userSpaceOnUse" color-interpolation-filters="sRGB">
<feFlood flood-opacity="0" result="BackgroundImageFix"/>
<feBlend mode="normal" in="SourceGraphic" in2="BackgroundImageFix" result="shape"/>
<feColorMatrix in="SourceAlpha" type="matrix" values="0 0 0 0 0 0 0 0 0 0 0 0 0 0 0 0 0 0 127 0" result="hardAlpha"/>
<feOffset/>
<feGaussianBlur stdDeviation="1"/>
<feComposite in2="hardAlpha" operator="arithmetic" k2="-1" k3="1"/>
<feColorMatrix type="matrix" values="0 0 0 0 0 0 0 0 0 0 0 0 0 0 0 0 0 0 0.9 0"/>
<feBlend mode="normal" in2="shape" result="effect1_innerShadow_859_9"/>
</filter>
</defs>
</svg>
