<svg width="18" height="18" viewBox="0 0 18 18" fill="none" xmlns="http://www.w3.org/2000/svg">
<path d="M6.72245 3.72641C7.73603 1.9088 8.24242 1 9 1C9.75758 1 10.264 1.9088 11.2775 3.72641L11.5399 4.19681C11.8279 4.71361 11.9719 4.97201 12.1959 5.14241C12.4199 5.31281 12.6999 5.37601 13.2599 5.50241L13.7687 5.61761C15.7366 6.06322 16.7198 6.28562 16.9542 7.03842C17.1878 7.79042 16.5174 8.57522 15.1759 10.144L14.8287 10.5496C14.4479 10.9952 14.2567 11.2184 14.1711 11.4936C14.0855 11.7696 14.1143 12.0672 14.1719 12.6616L14.2247 13.2032C14.4271 15.2968 14.5287 16.3432 13.9159 16.808C13.3031 17.2737 12.3815 16.8488 10.54 16.0008L10.0624 15.7816C9.53919 15.54 9.27759 15.42 9 15.42C8.72241 15.42 8.46081 15.54 7.93762 15.7816L7.46084 16.0008C5.61848 16.8488 4.6969 17.2728 4.08492 16.8088C3.47133 16.3432 3.57293 15.2968 3.77532 13.2032L3.82812 12.6624C3.88572 12.0672 3.91452 11.7696 3.82812 11.4944C3.74332 11.2184 3.55213 10.9952 3.17134 10.5504L2.82415 10.144C1.48258 8.57602 0.812192 7.79122 1.04579 7.03842C1.28018 6.28562 2.26416 6.06242 4.23211 5.61761L4.7409 5.50241C5.30009 5.37601 5.57928 5.31281 5.80408 5.14241C6.02807 4.97201 6.17207 4.71361 6.46006 4.19681L6.72245 3.72641Z" stroke="url(#paint0_linear_655_184)" stroke-width="1.5"/>
<defs>
<linearGradient id="paint0_linear_655_184" x1="9" y1="1" x2="9" y2="17" gradientUnits="userSpaceOnUse">
<stop stop-color="#FCCA27" stop-opacity="0.41"/>
<stop offset="0.505" stop-color="#FCCA27"/>
<stop offset="1" stop-color="#FCCA27" stop-opacity="0.4"/>
</linearGradient>
</defs>
</svg>
