<svg width="31" height="17" viewBox="0 0 31 17" fill="none" xmlns="http://www.w3.org/2000/svg">
<rect x="1" width="29" height="17" rx="3" fill="url(#paint0_linear_655_154)"/>
<path d="M0 3C0 1.34315 1.34315 0 3 0H7V17H3C1.34315 17 0 15.6569 0 14V3Z" fill="url(#paint1_linear_655_154)"/>
<path d="M31 3C31 1.34315 29.6569 0 28 0H24V17H28C29.6569 17 31 15.6569 31 14V3Z" fill="url(#paint2_linear_655_154)"/>
<rect x="15" width="1" height="17" fill="url(#paint3_linear_655_154)"/>
<defs>
<linearGradient id="paint0_linear_655_154" x1="30" y1="17" x2="1.46774" y2="17" gradientUnits="userSpaceOnUse">
<stop offset="0.452715" stop-color="#696969"/>
<stop offset="0.787647" stop-color="#212121"/>
<stop offset="1" stop-color="#111111"/>
</linearGradient>
<linearGradient id="paint1_linear_655_154" x1="7" y1="5.5" x2="-3.30471e-08" y2="5.5" gradientUnits="userSpaceOnUse">
<stop offset="0.208264" stop-color="#212121"/>
<stop offset="0.656883" stop-color="#828282"/>
</linearGradient>
<linearGradient id="paint2_linear_655_154" x1="31" y1="5.5" x2="24.5" y2="5.5" gradientUnits="userSpaceOnUse">
<stop offset="0.483133" stop-color="#151515"/>
<stop offset="1" stop-color="#6A6A6A"/>
</linearGradient>
<linearGradient id="paint3_linear_655_154" x1="15.5" y1="0" x2="15.5" y2="17" gradientUnits="userSpaceOnUse">
<stop stop-color="#686868" stop-opacity="0"/>
<stop offset="0.483874" stop-color="#FCCA27"/>
<stop offset="1" stop-color="#B5B5B5" stop-opacity="0"/>
</linearGradient>
</defs>
</svg>
